<svg xmlns="http://www.w3.org/2000/svg" width="606.6329345703125" height="93.97650909423828" viewBox="-290.072265625 49.445274353027344 606.6329345703125 93.97650909423828"><title>Neo4j Graph Visualization</title><desc>Created using Neo4j (http://www.neo4j.com/)</desc><g class="layer relationships"><g class="relationship" transform="translate(123.28825493345109 99.42177325315745) rotate(357.7072396594642)"><path class="outline" fill="#A5ABB6" stroke="none" d="M 40 0.5 L 53.96162309775677 0.5 L 53.96162309775677 -0.5 L 40 -0.5 Z M 88.43037309775677 0.5 L 102.39199619551354 0.5 L 102.39199619551354 3.5 L 109.39199619551354 0 L 102.39199619551354 -3.5 L 102.39199619551354 -0.5 L 88.43037309775677 -0.5 Z"/><text text-anchor="middle" pointer-events="none" font-size="8px" fill="#000000" x="71.19599809775677" y="3" font-family="sans-serif">est_une</text></g><g class="relationship" transform="translate(-19.781308035471618 98.37832362989445) rotate(360.41786805175707)"><path class="outline" fill="#A5ABB6" stroke="none" d="M 40 0.5 L 54.362855882638385 0.5 L 54.362855882638385 -0.5 L 40 -0.5 Z M 81.71051213263839 0.5 L 96.07336801527677 0.5 L 96.07336801527677 3.5 L 103.07336801527677 0 L 96.07336801527677 -3.5 L 96.07336801527677 -0.5 L 81.71051213263839 -0.5 Z"/><text text-anchor="middle" pointer-events="none" font-size="8px" fill="#000000" x="68.03668400763839" y="3" font-family="sans-serif">fait_la</text></g><g class="relationship" transform="translate(-19.781308035471618 98.37832362989445) rotate(181.15642530793934)"><path class="outline" fill="#A5ABB6" stroke="none" d="M 40 0.5 L 60.7624160025628 0.5 L 60.7624160025628 -0.5 L 40 -0.5 Z M 86.3327285025628 0.5 L 107.0951445051256 0.5 L 107.0951445051256 3.5 L 114.0951445051256 0 L 107.0951445051256 -3.5 L 107.0951445051256 -0.5 L 86.3327285025628 -0.5 Z"/><text text-anchor="middle" pointer-events="none" font-size="8px" fill="#000000" x="73.5475722525628" y="3" transform="rotate(180 73.5475722525628 0)" font-family="sans-serif">est_à</text></g><g class="relationship" transform="translate(-173.84506667391835 95.26836635527286) rotate(451.15642530793934)"><path class="outline" fill="#A5ABB6" stroke="none" d="M 11.801650543534434 38.24880448390895 L 22.154412347635265 76.88583753547168 A 22.935935394489817 22.935935394489817 0 1 1 -22.154412347635265 76.88583753547168 L -14.13102194945712 46.94213692051056 L -8.33546699172271 48.49505119112569 L -10.352761804100831 38.63703305156273 L -17.028799428324326 46.165679785203004 L -11.233244470589915 47.71859405581813 L -19.25663486876806 77.66229467077923 A 19.935935394489817 19.935935394489817 0 1 0 19.25663486876806 77.66229467077923 L 8.903873064667229 39.02526161921651 Z"/><text text-anchor="middle" pointer-events="none" font-size="8px" fill="#000000" x="0" y="114.75802982729645" transform="rotate(180 0 111.75802982729645)" font-family="sans-serif">route</text></g></g><g class="layer nodes"><g class="node" transform="translate(123.28825493345109,99.42177325315745)"><circle class="outline" cx="0" cy="0" r="40" fill="#FB95AF" stroke="#E0849B" stroke-width="2px"/><text text-anchor="middle" pointer-events="none" font-family="sans-serif" dy="2.5" font-size="40" fill="#FFFFFF"/><text text-anchor="middle" pointer-events="none" y="5" font-size="10px" fill="#FFFFFF" font-family="sans-serif"> Bière</text></g><g class="node" transform="translate(272.56065656550453,93.44526605586778)"><circle class="outline" cx="0" cy="0" r="40" fill="#DE9BF9" stroke="#BF85D6" stroke-width="2px"/><text text-anchor="middle" pointer-events="none" font-family="sans-serif" dy="2.5" font-size="40" fill="#FFFFFF"/><text text-anchor="middle" pointer-events="none" y="5" font-size="10px" fill="#FFFFFF" font-family="sans-serif"> Type_Bière</text></g><g class="node" transform="translate(-19.781308035471618,98.37832362989445)"><circle class="outline" cx="0" cy="0" r="40" fill="#FF756E" stroke="#E06760" stroke-width="2px"/><text text-anchor="middle" pointer-events="none" font-family="sans-serif" dy="2.5" font-size="40" fill="#FFFFFF"/><text text-anchor="middle" pointer-events="none" y="5" font-size="10px" fill="#FFFFFF" font-family="sans-serif"> Microbrasserie</text></g><g class="node" transform="translate(-173.84506667391835,95.26836635527286)"><circle class="outline" cx="0" cy="0" r="40" fill="#6DCE9E" stroke="#60B58B" stroke-width="2px"/><text text-anchor="middle" pointer-events="none" font-family="sans-serif" dy="2.5" font-size="40" fill="#FFFFFF"/><text text-anchor="middle" pointer-events="none" y="5" font-size="10px" fill="#FFFFFF" font-family="sans-serif"> Ville</text></g></g></svg>